<svg xmlns="http://www.w3.org/2000/svg" width="1200" height="630" viewBox="0 0 1200 630">
  <defs>
    <linearGradient id="bg" x1="0" y1="0" x2="1" y2="1">
      <stop offset="0%" stop-color="#4f46e5"/>
      <stop offset="100%" stop-color="#6366f1"/>
    </linearGradient>
  </defs>
  <rect width="1200" height="630" fill="url(#bg)"/>
  <!-- Logo -->
  <text x="100" y="260" font-family="system-ui, -apple-system, sans-serif" font-size="72" font-weight="800" fill="#ffffff">StatusRooster</text>
  <!-- Tagline -->
  <text x="100" y="330" font-family="system-ui, -apple-system, sans-serif" font-size="36" font-weight="400" fill="rgba(255,255,255,0.85)">Uptime monitoring for developers.</text>
  <!-- Features -->
  <text x="100" y="410" font-family="system-ui, -apple-system, sans-serif" font-size="26" font-weight="500" fill="rgba(255,255,255,0.7)">Free forever  ·  60s checks  ·  4 regions  ·  Full REST API</text>
  <!-- Uptime bars visual -->
  <g transform="translate(100, 470)">
    <rect x="0" y="0" width="28" height="40" rx="4" fill="rgba(255,255,255,0.3)"/>
    <rect x="34" y="0" width="28" height="40" rx="4" fill="rgba(255,255,255,0.3)"/>
    <rect x="68" y="0" width="28" height="40" rx="4" fill="#22c55e"/>
    <rect x="102" y="0" width="28" height="40" rx="4" fill="#22c55e"/>
    <rect x="136" y="0" width="28" height="40" rx="4" fill="#22c55e"/>
    <rect x="170" y="0" width="28" height="40" rx="4" fill="#22c55e"/>
    <rect x="204" y="0" width="28" height="40" rx="4" fill="#22c55e"/>
    <rect x="238" y="0" width="28" height="40" rx="4" fill="#22c55e"/>
    <rect x="272" y="0" width="28" height="40" rx="4" fill="#22c55e"/>
    <rect x="306" y="0" width="28" height="40" rx="4" fill="#22c55e"/>
    <rect x="340" y="0" width="28" height="40" rx="4" fill="#22c55e"/>
    <rect x="374" y="0" width="28" height="40" rx="4" fill="#22c55e"/>
    <rect x="408" y="0" width="28" height="40" rx="4" fill="#22c55e"/>
    <rect x="442" y="0" width="28" height="40" rx="4" fill="#22c55e"/>
    <rect x="476" y="0" width="28" height="40" rx="4" fill="#22c55e"/>
    <rect x="510" y="0" width="28" height="40" rx="4" fill="#22c55e"/>
    <rect x="544" y="0" width="28" height="40" rx="4" fill="#ef4444"/>
    <rect x="578" y="0" width="28" height="40" rx="4" fill="#22c55e"/>
    <rect x="612" y="0" width="28" height="40" rx="4" fill="#22c55e"/>
    <rect x="646" y="0" width="28" height="40" rx="4" fill="#22c55e"/>
  </g>
  <!-- Domain -->
  <text x="1100" y="580" font-family="system-ui, -apple-system, sans-serif" font-size="22" font-weight="500" fill="rgba(255,255,255,0.5)" text-anchor="end">statusrooster.com</text>
</svg>
